<svg id="logo-background" width="100" height="100" viewBox="0 0 100 100" fill="none">
    <g class="letter" id="LetterL">
        <line id="Line 1" x1="25.5" y1="7" x2="25.5" y2="93"/>
        <line id="Line 2" x1="26" y1="92.5" x2="73" y2="92.5"/>
    </g>
    <g class="letter" id="LetterO">
        <circle id="LetterO" cx="50" cy="50" r="49.5"/>
    </g>
    <g class="letter" id="LetterU">
        <path id="Ellipse 1" d="M68.5 69C68.5 71.4295 68.0215 73.8351 67.0918 76.0796C66.1621 78.3242 64.7994 80.3636 63.0815 82.0815C61.3636 83.7994 59.3242 85.1621 57.0796 86.0918C54.8351 87.0215 52.4295 87.5 50 87.5C47.5705 87.5 45.1649 87.0215 42.9204 86.0918C40.6758 85.1621 38.6364 83.7994 36.9185 82.0815C35.2006 80.3636 33.8379 78.3242 32.9082 76.0796C31.9785 73.8351 31.5 71.4295 31.5 69"/>
        <line id="Line 5" x1="31.5" y1="69" x2="31.5" y2="4"/>
        <line id="Line 6" x1="68.5" y1="69" x2="68.5" y2="4"/>
    </g>
    <g class="letter" id="LetterI">
        <line id="Line 3" x1="74.5" y1="93" x2="74.5" y2="7"/>
        <!-- <line id="Line 3" x1="74.5" y1="93" x2="74.5" y2="10"/>
        <line id="Line 4" x1="74.5" y1="8" x2="74.5" y2="9"/> -->
    </g>
    <g class="letter" id="LetterS">
        <path id="Ellipse 2" d="M63.0815 55.9186C66.5509 59.388 68.5 64.0935 68.5 69C68.5 73.9065 66.5509 78.612 63.0815 82.0815C59.6121 85.5509 54.9066 87.5 50.0001 87.5C45.0936 87.5 40.388 85.551 36.9186 82.0815"/>
        <path id="Ellipse 3" d="M36.9185 32.0815C35.2006 30.3636 33.8379 28.3242 32.9082 26.0796C31.9785 23.8351 31.5 21.4294 31.5 19C31.5 16.5705 31.9785 14.1649 32.9082 11.9203C33.838 9.67581 35.2007 7.63638 36.9185 5.9185C38.6364 4.20062 40.6759 2.83792 42.9204 1.90821C45.1649 0.978506 47.5706 0.499994 50 0.5C52.4295 0.500006 54.8352 0.978529 57.0797 1.90825C59.3242 2.83797 61.3636 4.20067 63.0815 5.91856"/>
        <path id="Line 8" d="M36 31.1899L64 56.7467" stroke-linecap="round" />
    </g>
</svg>